<mxfile host="app.diagrams.net" agent="Mozilla/5.0 (X11; Linux x86_64) AppleWebKit/537.36 (KHTML, like Gecko) Chrome/136.0.0.0 Safari/537.36" version="27.0.6">
  <diagram name="Page-1" id="bqPajOPppWqj9xLQ9tjU">
    <mxGraphModel dx="1356" dy="764" grid="1" gridSize="10" guides="1" tooltips="1" connect="1" arrows="1" fold="1" page="1" pageScale="1" pageWidth="1169" pageHeight="827" math="0" shadow="0">
      <root>
        <mxCell id="0" />
        <mxCell id="1" parent="0" />
        <mxCell id="GLmkACNpqC7lelTF0wny-1" value="Controller Layer " style="group;fontStyle=1" vertex="1" connectable="0" parent="1">
          <mxGeometry x="80" y="224" width="660" height="120" as="geometry" />
        </mxCell>
        <mxCell id="GLmkACNpqC7lelTF0wny-2" value="" style="group" vertex="1" connectable="0" parent="GLmkACNpqC7lelTF0wny-1">
          <mxGeometry x="26" y="30" width="610" height="60" as="geometry" />
        </mxCell>
        <mxCell id="GLmkACNpqC7lelTF0wny-3" value="" style="group" vertex="1" connectable="0" parent="GLmkACNpqC7lelTF0wny-2">
          <mxGeometry width="441" height="60" as="geometry" />
        </mxCell>
        <mxCell id="GLmkACNpqC7lelTF0wny-4" value="BookingController" style="rounded=0;whiteSpace=wrap;html=1;fillColor=light-dark(#69a6f7, #ededed);" vertex="1" parent="GLmkACNpqC7lelTF0wny-3">
          <mxGeometry width="120" height="60" as="geometry" />
        </mxCell>
        <mxCell id="GLmkACNpqC7lelTF0wny-5" value="Destination&lt;span style=&quot;background-color: transparent; color: light-dark(rgb(0, 0, 0), rgb(255, 255, 255));&quot;&gt;Controller&lt;/span&gt;" style="rounded=0;whiteSpace=wrap;html=1;fillColor=#69A6F7;" vertex="1" parent="GLmkACNpqC7lelTF0wny-3">
          <mxGeometry x="321" width="120" height="60" as="geometry" />
        </mxCell>
        <mxCell id="GLmkACNpqC7lelTF0wny-6" value="User&lt;span style=&quot;background-color: transparent; color: light-dark(rgb(0, 0, 0), rgb(255, 255, 255));&quot;&gt;Controller&lt;/span&gt;" style="rounded=0;whiteSpace=wrap;html=1;fillColor=#69A6F7;" vertex="1" parent="GLmkACNpqC7lelTF0wny-3">
          <mxGeometry x="161" width="120" height="60" as="geometry" />
        </mxCell>
        <mxCell id="GLmkACNpqC7lelTF0wny-7" value="AuthController" style="rounded=0;whiteSpace=wrap;html=1;fillColor=#69A6F7;" vertex="1" parent="GLmkACNpqC7lelTF0wny-2">
          <mxGeometry x="490" width="120" height="60" as="geometry" />
        </mxCell>
        <mxCell id="GLmkACNpqC7lelTF0wny-8" value="" style="swimlane;startSize=0;fillColor=#6BD4F5;strokeColor=#0066CC;" vertex="1" parent="GLmkACNpqC7lelTF0wny-1">
          <mxGeometry width="660" height="120" as="geometry" />
        </mxCell>
        <mxCell id="GLmkACNpqC7lelTF0wny-9" value="Repository Layer" style="group;fontStyle=1" vertex="1" connectable="0" parent="1">
          <mxGeometry x="160.5" y="602" width="480" height="178" as="geometry" />
        </mxCell>
        <mxCell id="GLmkACNpqC7lelTF0wny-10" value="" style="group" vertex="1" connectable="0" parent="GLmkACNpqC7lelTF0wny-9">
          <mxGeometry x="43" y="29.25" width="385" height="111.25" as="geometry" />
        </mxCell>
        <mxCell id="GLmkACNpqC7lelTF0wny-11" value="BookingRepository" style="sketch=0;html=1;aspect=fixed;strokeColor=none;shadow=0;fillColor=#0066CC;verticalAlign=top;labelPosition=center;verticalLabelPosition=bottom;shape=mxgraph.gcp2.repository" vertex="1" parent="GLmkACNpqC7lelTF0wny-10">
          <mxGeometry width="60" height="100" as="geometry" />
        </mxCell>
        <mxCell id="GLmkACNpqC7lelTF0wny-12" value="User&lt;span style=&quot;background-color: transparent; color: light-dark(rgb(0, 0, 0), rgb(255, 255, 255));&quot;&gt;Repository&lt;/span&gt;" style="sketch=0;html=1;aspect=fixed;strokeColor=none;shadow=0;fillColor=#0066CC;verticalAlign=top;labelPosition=center;verticalLabelPosition=bottom;shape=mxgraph.gcp2.repository" vertex="1" parent="GLmkACNpqC7lelTF0wny-10">
          <mxGeometry x="165" width="60" height="100" as="geometry" />
        </mxCell>
        <mxCell id="GLmkACNpqC7lelTF0wny-13" value="&lt;span style=&quot;background-color: transparent; color: light-dark(rgb(0, 0, 0), rgb(255, 255, 255));&quot;&gt;DestinationRepository&lt;/span&gt;" style="sketch=0;html=1;aspect=fixed;strokeColor=none;shadow=0;fillColor=#0066CC;verticalAlign=top;labelPosition=center;verticalLabelPosition=bottom;shape=mxgraph.gcp2.repository" vertex="1" parent="GLmkACNpqC7lelTF0wny-10">
          <mxGeometry x="325" width="60" height="100" as="geometry" />
        </mxCell>
        <mxCell id="GLmkACNpqC7lelTF0wny-14" value="" style="swimlane;startSize=0;" vertex="1" parent="GLmkACNpqC7lelTF0wny-9">
          <mxGeometry width="480" height="178" as="geometry" />
        </mxCell>
        <mxCell id="GLmkACNpqC7lelTF0wny-16" value="&lt;div&gt;&lt;b&gt;Client&lt;/b&gt;&lt;/div&gt;" style="image;aspect=fixed;perimeter=ellipsePerimeter;html=1;align=center;shadow=0;dashed=0;spacingTop=3;image=img/lib/active_directory/laptop_client.svg;" vertex="1" parent="1">
          <mxGeometry x="348.5" y="10" width="120" height="133.33" as="geometry" />
        </mxCell>
        <mxCell id="GLmkACNpqC7lelTF0wny-17" value="" style="group" vertex="1" connectable="0" parent="1">
          <mxGeometry x="193.91" y="860" width="410.18" height="110" as="geometry" />
        </mxCell>
        <mxCell id="GLmkACNpqC7lelTF0wny-18" value="&lt;b&gt;PostgreSQL&lt;/b&gt;" style="image;aspect=fixed;html=1;points=[];align=center;fontSize=12;image=img/lib/azure2/databases/Azure_Database_PostgreSQL_Server.svg;" vertex="1" parent="GLmkACNpqC7lelTF0wny-17">
          <mxGeometry x="170" width="82.5" height="110" as="geometry" />
        </mxCell>
        <mxCell id="GLmkACNpqC7lelTF0wny-21" value="" style="shape=singleArrow;direction=south;whiteSpace=wrap;html=1;" vertex="1" parent="1">
          <mxGeometry x="401" y="180" width="15" height="40" as="geometry" />
        </mxCell>
        <mxCell id="GLmkACNpqC7lelTF0wny-22" value="" style="shape=singleArrow;direction=south;whiteSpace=wrap;html=1;" vertex="1" parent="1">
          <mxGeometry x="400" y="344.33000000000004" width="15" height="66.67" as="geometry" />
        </mxCell>
        <mxCell id="GLmkACNpqC7lelTF0wny-23" value="" style="shape=singleArrow;direction=south;whiteSpace=wrap;html=1;" vertex="1" parent="1">
          <mxGeometry x="393" y="781" width="15" height="66.67" as="geometry" />
        </mxCell>
        <mxCell id="GLmkACNpqC7lelTF0wny-24" value="" style="group" vertex="1" connectable="0" parent="1">
          <mxGeometry x="120" y="427" width="568" height="78" as="geometry" />
        </mxCell>
        <mxCell id="GLmkACNpqC7lelTF0wny-25" value="UserService" style="sketch=0;outlineConnect=0;fontColor=#232F3E;gradientColor=none;fillColor=#69A6F7;strokeColor=none;dashed=0;verticalLabelPosition=bottom;verticalAlign=top;align=center;html=1;fontSize=12;fontStyle=0;aspect=fixed;pointerEvents=1;shape=mxgraph.aws4.gear;" vertex="1" parent="GLmkACNpqC7lelTF0wny-24">
          <mxGeometry x="160" width="78" height="78" as="geometry" />
        </mxCell>
        <mxCell id="GLmkACNpqC7lelTF0wny-26" value="&lt;span style=&quot;background-color: transparent; color: light-dark(rgb(35, 47, 62), rgb(189, 199, 212));&quot;&gt;DestinationService&lt;/span&gt;" style="sketch=0;outlineConnect=0;fontColor=#232F3E;gradientColor=none;fillColor=#69A6F7;strokeColor=none;dashed=0;verticalLabelPosition=bottom;verticalAlign=top;align=center;html=1;fontSize=12;fontStyle=0;aspect=fixed;pointerEvents=1;shape=mxgraph.aws4.gear;" vertex="1" parent="GLmkACNpqC7lelTF0wny-24">
          <mxGeometry x="320" width="78" height="78" as="geometry" />
        </mxCell>
        <mxCell id="GLmkACNpqC7lelTF0wny-27" value="&lt;span style=&quot;background-color: transparent; color: light-dark(rgb(35, 47, 62), rgb(189, 199, 212));&quot;&gt;AuthService&lt;/span&gt;" style="sketch=0;outlineConnect=0;fontColor=#232F3E;gradientColor=none;fillColor=#69A6F7;strokeColor=none;dashed=0;verticalLabelPosition=bottom;verticalAlign=top;align=center;html=1;fontSize=12;fontStyle=0;aspect=fixed;pointerEvents=1;shape=mxgraph.aws4.gear;" vertex="1" parent="GLmkACNpqC7lelTF0wny-24">
          <mxGeometry x="490" width="78" height="78" as="geometry" />
        </mxCell>
        <mxCell id="GLmkACNpqC7lelTF0wny-28" value="BookingService" style="sketch=0;outlineConnect=0;fontColor=#232F3E;gradientColor=none;fillColor=#69A6F7;strokeColor=none;dashed=0;verticalLabelPosition=bottom;verticalAlign=top;align=center;html=1;fontSize=12;fontStyle=0;aspect=fixed;pointerEvents=1;shape=mxgraph.aws4.gear;" vertex="1" parent="GLmkACNpqC7lelTF0wny-24">
          <mxGeometry width="78" height="78" as="geometry" />
        </mxCell>
        <mxCell id="GLmkACNpqC7lelTF0wny-29" value="&#xa;&#xa;Service LayerÂ " style="swimlane;startSize=0;" vertex="1" parent="1">
          <mxGeometry x="80" y="413" width="660" height="120" as="geometry" />
        </mxCell>
        <mxCell id="GLmkACNpqC7lelTF0wny-30" value="" style="shape=singleArrow;direction=south;whiteSpace=wrap;html=1;" vertex="1" parent="1">
          <mxGeometry x="391.5" y="533" width="15" height="66.67" as="geometry" />
        </mxCell>
      </root>
    </mxGraphModel>
  </diagram>
</mxfile>
